<?xml version="1.0" standalone="no"?>
<!DOCTYPE svg PUBLIC "-//W3C//DTD SVG 20010904//EN"
 "http://www.w3.org/TR/2001/REC-SVG-20010904/DTD/svg10.dtd">
<svg version="1.0" xmlns="http://www.w3.org/2000/svg"
 width="320.000000pt" height="320.000000pt" viewBox="0 0 320.000000 320.000000"
 preserveAspectRatio="xMidYMid meet">

<g transform="translate(0.000000,320.000000) scale(0.100000,-0.100000)"
fill="#000000" stroke="none">
<path d="M0 1600 l0 -1600 1600 0 1600 0 0 1600 0 1600 -1600 0 -1600 0 0
-1600z m1200 -6 c0 -360 -3 -533 -10 -529 -14 9 -13 1065 0 1065 6 0 10 -198
10 -536z m-387 407 c23 -16 52 -39 63 -52 30 -33 62 -85 47 -76 -16 10 -17 -5
-1 -21 9 -9 8 -12 -4 -12 -9 0 -26 16 -38 35 -27 43 -83 88 -150 119 -44 21
-49 25 -31 31 29 9 92 -29 159 -96 28 -29 52 -48 52 -43 0 17 -93 100 -142
129 -27 15 -48 29 -48 31 0 8 54 -18 93 -45z m1947 32 c-1 -5 -23 -25 -50 -46
-40 -31 -57 -38 -85 -35 l-36 3 33 43 c31 40 35 42 85 42 29 0 53 -3 53 -7z
m-2076 -38 c96 -29 163 -82 203 -159 16 -30 15 -30 -29 11 -25 23 -61 49 -79
58 -37 17 -26 7 44 -42 50 -34 82 -78 50 -66 -10 3 -37 24 -61 46 -52 46 -129
83 -196 93 -48 7 -49 7 -29 24 15 12 18 21 11 33 -12 22 18 23 86 2z m1701
-16 c3 -4 -10 -32 -30 -63 -33 -52 -39 -56 -73 -56 -21 0 -48 -7 -60 -16 -46
-32 -65 -105 -41 -158 10 -21 7 -32 -25 -85 -21 -34 -44 -61 -51 -61 -15 0
-54 48 -77 95 -64 130 10 301 150 346 30 9 197 8 207 -2z m73 -39 c23 -17 42
-32 42 -35 0 -5 -89 -89 -99 -92 -3 -1 -19 8 -35 22 l-29 23 33 56 c19 31 37
56 41 56 3 0 25 -14 47 -30z m-1748 -45 c46 -23 117 -81 130 -106 9 -16 1 -13
-40 12 -52 32 -140 69 -163 69 -6 0 14 -11 46 -24 32 -13 83 -39 113 -58 44
-26 51 -34 35 -36 -12 -2 -33 5 -48 16 -51 36 -127 69 -173 77 -25 3 -54 9
-64 12 -18 5 -18 6 5 19 13 7 19 13 13 14 -7 0 -15 7 -18 16 -6 15 2 16 61 12
38 -3 84 -13 103 -23z m844 11 c70 -29 99 -122 62 -194 -21 -41 -88 -72 -154
-72 l-52 0 0 -45 0 -45 -65 0 -65 0 0 185 0 185 120 0 c80 0 132 -5 154 -14z
m388 -73 c20 -49 39 -110 42 -137 3 -27 17 -69 31 -94 14 -24 25 -46 25 -48 0
-2 -24 -4 -53 -4 -49 0 -53 2 -64 30 -11 29 -12 30 -83 30 -71 0 -72 -1 -83
-30 -11 -29 -13 -30 -75 -30 -57 0 -63 2 -58 18 4 9 39 92 79 184 l72 167 65
1 66 0 36 -87z m850 42 l3 -45 -87 0 c-85 0 -88 -1 -88 -22 0 -22 4 -23 73
-23 l72 0 3 -47 3 -48 -75 0 c-69 0 -76 -2 -76 -20 0 -19 7 -20 90 -20 l90 0
0 -50 0 -50 -145 0 -145 0 0 109 c0 63 -4 112 -10 116 -19 11 -11 81 10 100
12 10 18 25 16 32 -4 10 22 13 128 13 l134 0 4 -45z m-1808 -67 c3 -17 4 -33
2 -35 -2 -2 -20 -1 -41 3 l-36 6 27 29 c35 37 40 36 48 -3z m-267 -12 c51 -28
115 -85 82 -74 -67 24 -183 58 -197 57 -9 0 10 -9 44 -18 82 -25 163 -63 143
-68 -9 -2 -40 9 -70 24 -50 26 -62 28 -172 28 l-118 0 29 27 c28 24 29 26 10
31 -12 4 -17 10 -13 17 5 9 38 11 109 8 88 -3 108 -7 153 -32z m193 -56 c0
-27 -3 -30 -31 -30 -31 0 -32 7 -1 43 22 25 32 21 32 -13z m1578 -93 l-3 -102
-50 -24 c-93 -45 -303 -37 -299 12 1 9 16 39 34 67 32 49 32 50 60 35 30 -16
67 -19 94 -9 12 5 16 20 16 63 0 32 2 60 4 62 2 2 36 2 75 1 l72 -4 -3 -101z
m-1438 47 c0 -13 11 -40 25 -60 14 -20 25 -48 25 -62 0 -20 -4 -23 -22 -18
-13 3 -30 6 -38 6 -13 0 -13 1 0 11 12 8 10 9 -9 7 -16 -2 -32 -18 -52 -55
-17 -29 -26 -53 -21 -53 4 0 18 17 30 38 23 41 57 51 65 20 5 -19 -19 -38 -47
-38 -8 0 -18 -5 -22 -12 -5 -8 1 -9 22 -5 28 5 29 4 31 -38 1 -36 -2 -45 -19
-51 -37 -11 -138 17 -138 40 0 6 -11 32 -23 57 -20 40 -21 50 -10 65 7 10 13
27 13 38 0 11 17 37 37 58 28 28 45 38 68 37 25 0 27 -2 10 -9 l-20 -8 20 -8
c11 -4 26 -15 33 -23 12 -14 13 -13 8 8 -3 16 1 29 12 37 15 12 14 14 -13 15
-16 2 -38 3 -48 2 -13 0 -9 7 15 28 30 25 34 26 51 12 9 -9 17 -26 17 -39z
m-390 30 c65 -19 105 -43 92 -56 -6 -6 -30 -3 -63 6 -30 9 -85 18 -124 21
l-70 4 55 -9 c118 -20 161 -32 157 -43 -2 -7 -14 -10 -28 -7 -13 3 -74 5 -136
5 -112 0 -112 0 -98 21 12 18 11 23 -2 37 -14 14 -14 17 -2 21 8 2 21 7 29 9
33 11 139 6 190 -9z m193 -54 c4 -15 0 -20 -14 -20 -18 0 -26 20 -12 33 11 12
21 8 26 -13z m-180 -45 c9 -4 17 -13 17 -20 0 -10 -29 -15 -107 -20 -141 -8
-162 -12 -83 -14 52 -2 59 -4 38 -11 -15 -4 -43 -17 -61 -29 -20 -12 -42 -18
-55 -15 -20 6 -20 7 -5 31 16 24 16 26 -6 44 -25 20 -25 20 39 38 37 11 193 8
223 -4z m122 -40 c0 -22 -31 -33 -47 -17 -17 17 -1 44 24 40 15 -2 23 -10 23
-23z m-105 -29 c0 -8 -16 -17 -37 -21 -21 -4 -70 -20 -110 -37 -51 -21 -77
-27 -89 -20 -14 8 -13 12 12 29 68 47 224 81 224 49z m-70 -54 c-30 -21 -50
-41 -70 -69 -8 -12 -27 -25 -42 -29 -27 -6 -28 -5 -22 27 4 19 9 36 11 38 4 5
135 51 143 50 3 0 -6 -8 -20 -17z m8 -62 c-84 -88 -109 -101 -79 -42 22 43 63
84 106 106 56 29 50 16 -27 -64z m220 17 c22 -58 47 -185 39 -193 -3 -3 -14 0
-26 8 -18 11 -22 10 -35 -7 -13 -18 -15 -16 -30 35 -16 53 -23 220 -8 206 4
-4 12 -31 19 -59 l12 -52 -6 64 c-7 77 6 76 35 -2z m-114 42 c-3 -6 -19 -47
-34 -92 -28 -84 -55 -117 -44 -55 7 43 62 158 75 158 6 0 7 -5 3 -11z m23 -64
c-3 -35 -16 -83 -28 -107 l-22 -43 -10 28 c-7 22 -4 42 14 90 43 119 55 127
46 32z m1300 29 c2 -6 -10 -11 -27 -12 -27 -1 -29 2 -19 14 13 16 40 15 46 -2z
m-1402 -68 c-30 -90 -59 -112 -68 -53 -4 28 1 38 41 79 25 26 47 47 48 45 1
-1 -8 -33 -21 -71z m735 27 c0 -9 -14 -13 -41 -13 -33 0 -40 -3 -37 -17 2 -13
14 -19 41 -21 20 -2 37 -7 37 -12 0 -5 -17 -10 -37 -12 -27 -2 -39 -8 -41 -20
-3 -15 4 -18 43 -18 69 0 54 -24 -18 -28 l-57 -3 0 74 c0 40 2 76 4 78 3 2 27
4 55 4 35 1 51 -3 51 -12z m61 5 c1 -7 1 -37 0 -65 l-1 -53 35 0 c25 0 35 -4
35 -16 0 -12 -10 -14 -47 -12 l-48 3 -3 64 c-2 35 -1 70 2 77 7 17 26 18 27 2z
m199 -5 c0 -9 -14 -13 -40 -13 -33 0 -40 -3 -40 -20 0 -16 7 -20 35 -20 44 0
46 -18 3 -22 -21 -2 -34 -9 -36 -20 -3 -13 6 -17 40 -20 61 -4 49 -22 -17 -26
l-55 -3 0 74 c0 40 2 76 4 78 3 3 28 5 55 5 35 0 51 -4 51 -13z m118 11 c12
-2 22 -8 22 -13 0 -6 -10 -11 -22 -13 -21 -3 -23 -9 -26 -65 -2 -47 -7 -63
-17 -63 -12 0 -15 15 -15 65 0 58 -2 65 -20 65 -11 0 -20 6 -20 13 0 13 57 19
98 11z m148 -15 c17 -14 18 -61 3 -76 -8 -8 -8 -17 0 -31 15 -27 14 -32 -4
-32 -9 0 -21 11 -27 25 -6 14 -19 25 -30 25 -13 0 -18 -7 -18 -25 0 -16 -6
-25 -15 -25 -12 0 -15 15 -15 79 l0 78 46 -3 c26 -2 53 -9 60 -15z m177 -10
c26 -32 22 -83 -9 -108 -15 -12 -35 -21 -45 -21 -59 0 -101 57 -80 109 23 53
97 64 134 20z m106 -19 l40 -50 3 47 c2 26 9 48 16 51 9 3 12 -17 12 -77 0
-97 -11 -103 -61 -33 l-34 47 -3 -47 c-2 -34 -7 -48 -18 -48 -11 0 -14 16 -14
73 0 64 4 87 16 87 2 0 21 -23 43 -50z m136 -30 c0 -50 -4 -75 -12 -77 -10 -4
-13 16 -13 77 0 61 3 81 13 78 8 -3 12 -28 12 -78z m139 69 c34 -16 22 -31
-18 -23 -51 9 -83 -34 -56 -76 6 -9 24 -15 47 -15 51 0 57 -18 11 -29 -29 -7
-42 -6 -62 8 -48 31 -47 104 2 130 33 19 44 19 76 5z m168 -19 c25 -26 29 -36
24 -63 -15 -78 -124 -89 -150 -14 -13 36 2 78 34 94 38 20 59 16 92 -17z m139
19 c27 -14 13 -31 -21 -24 -44 10 -45 -12 0 -35 49 -25 56 -63 15 -82 -30 -14
-90 1 -90 22 0 9 7 13 15 11 60 -16 79 6 26 32 -27 13 -36 23 -36 42 0 39 49
57 91 34z"/>
<path d="M670 1950 c8 -5 20 -10 25 -10 6 0 3 5 -5 10 -8 5 -19 10 -25 10 -5
0 -3 -5 5 -10z"/>
<path d="M1415 1822 c-3 -3 -5 -23 -5 -44 0 -37 1 -38 34 -38 31 0 66 20 66
39 0 19 -28 41 -57 45 -18 2 -35 1 -38 -2z"/>
<path d="M1821 1749 c-6 -18 -11 -34 -11 -35 0 -2 14 -4 30 -4 17 0 30 2 30 4
0 14 -24 66 -30 66 -4 0 -13 -14 -19 -31z"/>
<path d="M538 1783 c6 -2 18 -2 25 0 6 3 1 5 -13 5 -14 0 -19 -2 -12 -5z"/>
<path d="M887 1572 c3 -12 9 -25 14 -28 5 -3 9 -15 10 -27 l0 -22 11 23 c10
20 8 27 -15 49 -25 25 -26 25 -20 5z"/>
<path d="M822 1370 c0 -14 2 -19 5 -12 2 6 2 18 0 25 -3 6 -5 1 -5 -13z"/>
<path d="M832 1310 c0 -14 2 -19 5 -12 2 6 2 18 0 25 -3 6 -5 1 -5 -13z"/>
<path d="M1840 1381 c0 -23 5 -31 18 -31 49 1 58 53 9 58 -24 3 -27 0 -27 -27z"/>
<path d="M1996 1388 c-21 -29 -20 -41 2 -61 37 -34 82 -15 82 35 0 47 -57 65
-84 26z"/>
<path d="M2556 1397 c-22 -16 -18 -65 5 -80 47 -29 101 32 64 73 -21 23 -44
25 -69 7z"/>
</g>
</svg>
